<svg width="21" height="23" viewBox="0 0 21 23" fill="none" xmlns="http://www.w3.org/2000/svg">
<path fill-rule="evenodd" clip-rule="evenodd" d="M6 23H17C19.2091 23 21 21.2091 21 19V9.24264C21 8.18177 20.5786 7.16436 19.8284 6.41421L17.7071 4.29289L14.5858 1.17157C13.8356 0.421427 12.8182 0 11.7574 0H6C3.79086 0 2 1.79086 2 4V19C2 21.2091 3.79086 23 6 23ZM3 4C3 2.34315 4.34315 1 6 1H11.7574C12.01 1 12.2593 1.03186 12.5 1.09336V5C12.5 6.933 14.067 8.5 16 8.5H19.9066C19.9681 8.74068 20 8.99002 20 9.24264V19C20 20.6569 18.6569 22 17 22H6C4.34315 22 3 20.6569 3 19V4ZM19.442 7.5C19.3464 7.366 19.2393 7.23925 19.1213 7.12132L17 5L13.8787 1.87868C13.7607 1.76075 13.634 1.65364 13.5 1.55802V5C13.5 6.38071 14.6193 7.5 16 7.5H19.442Z" fill="#CDD1D4"/>
<rect y="11" width="16" height="9" rx="2" fill="#DF1D42"/>
<path d="M2.4794 18V13.6364H4.0348C4.37429 13.6364 4.65554 13.6982 4.87855 13.8217C5.10156 13.9453 5.26847 14.1143 5.37926 14.3288C5.49006 14.5419 5.54545 14.782 5.54545 15.049C5.54545 15.3175 5.48935 15.5589 5.37713 15.7734C5.26634 15.9865 5.09872 16.1555 4.87429 16.2805C4.65128 16.4041 4.37074 16.4659 4.03267 16.4659H2.96307V15.9077H3.97301C4.1875 15.9077 4.36151 15.8707 4.49503 15.7969C4.62855 15.7216 4.72656 15.6193 4.78906 15.4901C4.85156 15.3608 4.88281 15.2138 4.88281 15.049C4.88281 14.8842 4.85156 14.7379 4.78906 14.6101C4.72656 14.4822 4.62784 14.3821 4.4929 14.3097C4.35938 14.2372 4.18324 14.201 3.96449 14.201H3.13778V18H2.4794ZM7.72994 18H6.31729V13.6364H7.77468C8.20224 13.6364 8.56942 13.7237 8.87624 13.8984C9.18306 14.0717 9.41815 14.321 9.5815 14.6463C9.74627 14.9702 9.82866 15.3587 9.82866 15.8118C9.82866 16.2663 9.74556 16.657 9.57937 16.9837C9.4146 17.3104 9.17596 17.5618 8.86346 17.7379C8.55096 17.9126 8.17312 18 7.72994 18ZM6.97567 17.4247H7.69371C8.0261 17.4247 8.30238 17.3622 8.52255 17.2372C8.74272 17.1108 8.90749 16.9283 9.01687 16.6896C9.12624 16.4496 9.18093 16.157 9.18093 15.8118C9.18093 15.4695 9.12624 15.179 9.01687 14.9403C8.90891 14.7017 8.74769 14.5206 8.5332 14.397C8.31871 14.2734 8.05238 14.2116 7.7342 14.2116H6.97567V17.4247ZM10.6474 18V13.6364H13.3533V14.2031H11.3058V15.5327H13.1594V16.0973H11.3058V18H10.6474Z" fill="white"/>
</svg>
